<mxfile host="Electron" modified="2024-07-07T08:06:53.633Z" agent="Mozilla/5.0 (Windows NT 10.0; Win64; x64) AppleWebKit/537.36 (KHTML, like Gecko) draw.io/22.1.2 Chrome/114.0.5735.289 Electron/25.9.4 Safari/537.36" etag="XcqW_49rvdMtaLiuc4B_" version="22.1.2" type="device">
  <diagram name="第 1 页" id="TRGHBqvYrTXLIzOMwZPG">
    <mxGraphModel dx="2495" dy="1253" grid="1" gridSize="10" guides="1" tooltips="1" connect="1" arrows="1" fold="1" page="1" pageScale="1" pageWidth="827" pageHeight="1169" math="0" shadow="0">
      <root>
        <mxCell id="0" />
        <mxCell id="1" parent="0" />
        <mxCell id="FMcnVNBL5ia8xo_0CRLg-1" style="edgeStyle=orthogonalEdgeStyle;rounded=0;orthogonalLoop=1;jettySize=auto;html=1;exitX=0.5;exitY=1;exitDx=0;exitDy=0;" edge="1" parent="1" source="FMcnVNBL5ia8xo_0CRLg-3" target="FMcnVNBL5ia8xo_0CRLg-8">
          <mxGeometry relative="1" as="geometry" />
        </mxCell>
        <mxCell id="FMcnVNBL5ia8xo_0CRLg-2" style="edgeStyle=orthogonalEdgeStyle;rounded=0;orthogonalLoop=1;jettySize=auto;html=1;entryX=0.5;entryY=0;entryDx=0;entryDy=0;exitX=0.5;exitY=1;exitDx=0;exitDy=0;" edge="1" parent="1" source="FMcnVNBL5ia8xo_0CRLg-3" target="FMcnVNBL5ia8xo_0CRLg-17">
          <mxGeometry relative="1" as="geometry" />
        </mxCell>
        <mxCell id="FMcnVNBL5ia8xo_0CRLg-68" style="edgeStyle=orthogonalEdgeStyle;rounded=0;orthogonalLoop=1;jettySize=auto;html=1;entryX=0.5;entryY=0;entryDx=0;entryDy=0;exitX=0.5;exitY=1;exitDx=0;exitDy=0;" edge="1" parent="1" source="FMcnVNBL5ia8xo_0CRLg-3" target="FMcnVNBL5ia8xo_0CRLg-59">
          <mxGeometry relative="1" as="geometry" />
        </mxCell>
        <mxCell id="FMcnVNBL5ia8xo_0CRLg-69" style="edgeStyle=orthogonalEdgeStyle;rounded=0;orthogonalLoop=1;jettySize=auto;html=1;entryX=0.5;entryY=0;entryDx=0;entryDy=0;exitX=0.5;exitY=1;exitDx=0;exitDy=0;" edge="1" parent="1" source="FMcnVNBL5ia8xo_0CRLg-3" target="FMcnVNBL5ia8xo_0CRLg-31">
          <mxGeometry relative="1" as="geometry" />
        </mxCell>
        <mxCell id="FMcnVNBL5ia8xo_0CRLg-3" value="Movement&lt;br style=&quot;font-size: 24px;&quot;&gt;Selector Node" style="rounded=0;whiteSpace=wrap;html=1;fillColor=#f8cecc;strokeColor=#b85450;fontStyle=1;fontSize=24;" vertex="1" parent="1">
          <mxGeometry x="770" y="20" width="227.5" height="90" as="geometry" />
        </mxCell>
        <mxCell id="FMcnVNBL5ia8xo_0CRLg-39" style="edgeStyle=orthogonalEdgeStyle;rounded=0;orthogonalLoop=1;jettySize=auto;html=1;entryX=0.5;entryY=0;entryDx=0;entryDy=0;" edge="1" parent="1" source="FMcnVNBL5ia8xo_0CRLg-4" target="FMcnVNBL5ia8xo_0CRLg-37">
          <mxGeometry relative="1" as="geometry">
            <Array as="points">
              <mxPoint x="246" y="470" />
              <mxPoint x="85" y="470" />
            </Array>
          </mxGeometry>
        </mxCell>
        <mxCell id="FMcnVNBL5ia8xo_0CRLg-41" style="edgeStyle=orthogonalEdgeStyle;rounded=0;orthogonalLoop=1;jettySize=auto;html=1;entryX=0.5;entryY=0;entryDx=0;entryDy=0;" edge="1" parent="1" source="FMcnVNBL5ia8xo_0CRLg-4" target="FMcnVNBL5ia8xo_0CRLg-40">
          <mxGeometry relative="1" as="geometry" />
        </mxCell>
        <mxCell id="FMcnVNBL5ia8xo_0CRLg-4" value="Selector" style="rounded=0;whiteSpace=wrap;html=1;" vertex="1" parent="1">
          <mxGeometry x="196" y="410" width="100" height="40" as="geometry" />
        </mxCell>
        <mxCell id="FMcnVNBL5ia8xo_0CRLg-5" style="edgeStyle=orthogonalEdgeStyle;rounded=0;orthogonalLoop=1;jettySize=auto;html=1;entryX=0.5;entryY=0;entryDx=0;entryDy=0;" edge="1" parent="1" source="FMcnVNBL5ia8xo_0CRLg-8" target="FMcnVNBL5ia8xo_0CRLg-9">
          <mxGeometry relative="1" as="geometry" />
        </mxCell>
        <mxCell id="FMcnVNBL5ia8xo_0CRLg-6" value="Touching Ceiling" style="edgeLabel;html=1;align=center;verticalAlign=middle;resizable=0;points=[];fontStyle=1;fontSize=17;" vertex="1" connectable="0" parent="FMcnVNBL5ia8xo_0CRLg-5">
          <mxGeometry x="0.5784" relative="1" as="geometry">
            <mxPoint as="offset" />
          </mxGeometry>
        </mxCell>
        <mxCell id="FMcnVNBL5ia8xo_0CRLg-7" style="edgeStyle=orthogonalEdgeStyle;rounded=0;orthogonalLoop=1;jettySize=auto;html=1;entryX=0.5;entryY=0;entryDx=0;entryDy=0;" edge="1" parent="1" source="FMcnVNBL5ia8xo_0CRLg-8" target="FMcnVNBL5ia8xo_0CRLg-4">
          <mxGeometry relative="1" as="geometry" />
        </mxCell>
        <mxCell id="FMcnVNBL5ia8xo_0CRLg-8" value="Touching Ceiling&lt;br&gt;Sequencer Node" style="rounded=0;whiteSpace=wrap;html=1;" vertex="1" parent="1">
          <mxGeometry x="135" y="240" width="100" height="50" as="geometry" />
        </mxCell>
        <mxCell id="FMcnVNBL5ia8xo_0CRLg-9" value="Touching Ceiling&lt;br style=&quot;border-color: var(--border-color);&quot;&gt;Condition Node" style="rounded=0;whiteSpace=wrap;html=1;" vertex="1" parent="1">
          <mxGeometry x="70" y="410" width="100" height="40" as="geometry" />
        </mxCell>
        <mxCell id="FMcnVNBL5ia8xo_0CRLg-42" style="edgeStyle=orthogonalEdgeStyle;rounded=0;orthogonalLoop=1;jettySize=auto;html=1;entryX=0.5;entryY=0;entryDx=0;entryDy=0;exitX=0.5;exitY=1;exitDx=0;exitDy=0;" edge="1" parent="1" source="FMcnVNBL5ia8xo_0CRLg-17" target="FMcnVNBL5ia8xo_0CRLg-29">
          <mxGeometry relative="1" as="geometry" />
        </mxCell>
        <mxCell id="FMcnVNBL5ia8xo_0CRLg-52" style="edgeStyle=orthogonalEdgeStyle;rounded=0;orthogonalLoop=1;jettySize=auto;html=1;entryX=0.5;entryY=0;entryDx=0;entryDy=0;exitX=0.5;exitY=1;exitDx=0;exitDy=0;" edge="1" parent="1" source="FMcnVNBL5ia8xo_0CRLg-17" target="FMcnVNBL5ia8xo_0CRLg-23">
          <mxGeometry relative="1" as="geometry" />
        </mxCell>
        <mxCell id="FMcnVNBL5ia8xo_0CRLg-17" value="Move Input&lt;br&gt;Selector Node" style="rounded=0;whiteSpace=wrap;html=1;" vertex="1" parent="1">
          <mxGeometry x="1080" y="240" width="100" height="50" as="geometry" />
        </mxCell>
        <mxCell id="FMcnVNBL5ia8xo_0CRLg-50" style="edgeStyle=orthogonalEdgeStyle;rounded=0;orthogonalLoop=1;jettySize=auto;html=1;entryX=0.5;entryY=0;entryDx=0;entryDy=0;" edge="1" parent="1" source="FMcnVNBL5ia8xo_0CRLg-19" target="FMcnVNBL5ia8xo_0CRLg-47">
          <mxGeometry relative="1" as="geometry" />
        </mxCell>
        <mxCell id="FMcnVNBL5ia8xo_0CRLg-51" style="edgeStyle=orthogonalEdgeStyle;rounded=0;orthogonalLoop=1;jettySize=auto;html=1;entryX=0.5;entryY=0;entryDx=0;entryDy=0;" edge="1" parent="1" source="FMcnVNBL5ia8xo_0CRLg-19" target="FMcnVNBL5ia8xo_0CRLg-49">
          <mxGeometry relative="1" as="geometry" />
        </mxCell>
        <mxCell id="FMcnVNBL5ia8xo_0CRLg-19" value="Selector" style="rounded=0;whiteSpace=wrap;html=1;" vertex="1" parent="1">
          <mxGeometry x="865" y="515" width="100" height="40" as="geometry" />
        </mxCell>
        <mxCell id="FMcnVNBL5ia8xo_0CRLg-20" style="edgeStyle=orthogonalEdgeStyle;rounded=0;orthogonalLoop=1;jettySize=auto;html=1;entryX=0.5;entryY=0;entryDx=0;entryDy=0;" edge="1" parent="1" source="FMcnVNBL5ia8xo_0CRLg-23" target="FMcnVNBL5ia8xo_0CRLg-24">
          <mxGeometry relative="1" as="geometry" />
        </mxCell>
        <mxCell id="FMcnVNBL5ia8xo_0CRLg-21" value="xInput" style="edgeLabel;html=1;align=center;verticalAlign=middle;resizable=0;points=[];fontStyle=1;fontSize=18;" vertex="1" connectable="0" parent="FMcnVNBL5ia8xo_0CRLg-20">
          <mxGeometry x="0.6" y="-4" relative="1" as="geometry">
            <mxPoint as="offset" />
          </mxGeometry>
        </mxCell>
        <mxCell id="FMcnVNBL5ia8xo_0CRLg-22" style="edgeStyle=orthogonalEdgeStyle;rounded=0;orthogonalLoop=1;jettySize=auto;html=1;entryX=0.5;entryY=0;entryDx=0;entryDy=0;" edge="1" parent="1" source="FMcnVNBL5ia8xo_0CRLg-23" target="FMcnVNBL5ia8xo_0CRLg-19">
          <mxGeometry relative="1" as="geometry" />
        </mxCell>
        <mxCell id="FMcnVNBL5ia8xo_0CRLg-23" value="xInput&lt;br&gt;Sequencer Node" style="rounded=0;whiteSpace=wrap;html=1;" vertex="1" parent="1">
          <mxGeometry x="804" y="410" width="100" height="50" as="geometry" />
        </mxCell>
        <mxCell id="FMcnVNBL5ia8xo_0CRLg-24" value="xInput&lt;br&gt;Condition Node" style="rounded=0;whiteSpace=wrap;html=1;" vertex="1" parent="1">
          <mxGeometry x="740.25" y="515" width="100" height="40" as="geometry" />
        </mxCell>
        <mxCell id="FMcnVNBL5ia8xo_0CRLg-25" value="Crouch Idle" style="rounded=0;whiteSpace=wrap;html=1;" vertex="1" parent="1">
          <mxGeometry x="1216" y="570" width="100" height="40" as="geometry" />
        </mxCell>
        <mxCell id="FMcnVNBL5ia8xo_0CRLg-26" style="edgeStyle=orthogonalEdgeStyle;rounded=0;orthogonalLoop=1;jettySize=auto;html=1;entryX=0.5;entryY=0;entryDx=0;entryDy=0;" edge="1" parent="1" source="FMcnVNBL5ia8xo_0CRLg-29" target="FMcnVNBL5ia8xo_0CRLg-30">
          <mxGeometry relative="1" as="geometry" />
        </mxCell>
        <mxCell id="FMcnVNBL5ia8xo_0CRLg-27" value="crouch Input" style="edgeLabel;html=1;align=center;verticalAlign=middle;resizable=0;points=[];fontStyle=1;fontSize=18;" vertex="1" connectable="0" parent="FMcnVNBL5ia8xo_0CRLg-26">
          <mxGeometry x="0.5795" y="3" relative="1" as="geometry">
            <mxPoint as="offset" />
          </mxGeometry>
        </mxCell>
        <mxCell id="FMcnVNBL5ia8xo_0CRLg-28" style="edgeStyle=orthogonalEdgeStyle;rounded=0;orthogonalLoop=1;jettySize=auto;html=1;entryX=0.5;entryY=0;entryDx=0;entryDy=0;" edge="1" parent="1" source="FMcnVNBL5ia8xo_0CRLg-29" target="FMcnVNBL5ia8xo_0CRLg-25">
          <mxGeometry relative="1" as="geometry" />
        </mxCell>
        <mxCell id="FMcnVNBL5ia8xo_0CRLg-29" value="crouch Input&lt;br&gt;Sequencer Node" style="rounded=0;whiteSpace=wrap;html=1;" vertex="1" parent="1">
          <mxGeometry x="1146" y="410" width="100" height="50" as="geometry" />
        </mxCell>
        <mxCell id="FMcnVNBL5ia8xo_0CRLg-30" value="crouch Input&lt;br&gt;Condition Node" style="rounded=0;whiteSpace=wrap;html=1;" vertex="1" parent="1">
          <mxGeometry x="1090" y="570" width="100" height="40" as="geometry" />
        </mxCell>
        <mxCell id="FMcnVNBL5ia8xo_0CRLg-31" value="Idle" style="rounded=0;whiteSpace=wrap;html=1;" vertex="1" parent="1">
          <mxGeometry x="1340" y="240" width="100" height="50" as="geometry" />
        </mxCell>
        <mxCell id="FMcnVNBL5ia8xo_0CRLg-33" value="CrouchMove" style="rounded=0;whiteSpace=wrap;html=1;" vertex="1" parent="1">
          <mxGeometry x="96" y="680" width="100" height="40" as="geometry" />
        </mxCell>
        <mxCell id="FMcnVNBL5ia8xo_0CRLg-34" style="edgeStyle=orthogonalEdgeStyle;rounded=0;orthogonalLoop=1;jettySize=auto;html=1;entryX=0.5;entryY=0;entryDx=0;entryDy=0;" edge="1" parent="1" source="FMcnVNBL5ia8xo_0CRLg-37" target="FMcnVNBL5ia8xo_0CRLg-38">
          <mxGeometry relative="1" as="geometry" />
        </mxCell>
        <mxCell id="FMcnVNBL5ia8xo_0CRLg-35" value="xInput" style="edgeLabel;html=1;align=center;verticalAlign=middle;resizable=0;points=[];fontStyle=1;fontSize=17;" vertex="1" connectable="0" parent="FMcnVNBL5ia8xo_0CRLg-34">
          <mxGeometry x="0.5784" relative="1" as="geometry">
            <mxPoint as="offset" />
          </mxGeometry>
        </mxCell>
        <mxCell id="FMcnVNBL5ia8xo_0CRLg-36" style="edgeStyle=orthogonalEdgeStyle;rounded=0;orthogonalLoop=1;jettySize=auto;html=1;entryX=0.5;entryY=0;entryDx=0;entryDy=0;" edge="1" parent="1" source="FMcnVNBL5ia8xo_0CRLg-37" target="FMcnVNBL5ia8xo_0CRLg-33">
          <mxGeometry relative="1" as="geometry" />
        </mxCell>
        <mxCell id="FMcnVNBL5ia8xo_0CRLg-37" value="xInput&lt;br&gt;Sequencer Node" style="rounded=0;whiteSpace=wrap;html=1;" vertex="1" parent="1">
          <mxGeometry x="35" y="510" width="100" height="50" as="geometry" />
        </mxCell>
        <mxCell id="FMcnVNBL5ia8xo_0CRLg-38" value="xInput&lt;br&gt;Condition Node" style="rounded=0;whiteSpace=wrap;html=1;" vertex="1" parent="1">
          <mxGeometry x="-30" y="680" width="100" height="40" as="geometry" />
        </mxCell>
        <mxCell id="FMcnVNBL5ia8xo_0CRLg-40" value="CrouchIdle" style="rounded=0;whiteSpace=wrap;html=1;" vertex="1" parent="1">
          <mxGeometry x="196" y="515" width="100" height="40" as="geometry" />
        </mxCell>
        <mxCell id="FMcnVNBL5ia8xo_0CRLg-43" value="CrouchMove" style="rounded=0;whiteSpace=wrap;html=1;" vertex="1" parent="1">
          <mxGeometry x="846" y="780" width="100" height="40" as="geometry" />
        </mxCell>
        <mxCell id="FMcnVNBL5ia8xo_0CRLg-44" style="edgeStyle=orthogonalEdgeStyle;rounded=0;orthogonalLoop=1;jettySize=auto;html=1;entryX=0.5;entryY=0;entryDx=0;entryDy=0;" edge="1" parent="1" source="FMcnVNBL5ia8xo_0CRLg-47" target="FMcnVNBL5ia8xo_0CRLg-48">
          <mxGeometry relative="1" as="geometry" />
        </mxCell>
        <mxCell id="FMcnVNBL5ia8xo_0CRLg-45" value="crouch Input" style="edgeLabel;html=1;align=center;verticalAlign=middle;resizable=0;points=[];fontStyle=1;fontSize=17;" vertex="1" connectable="0" parent="FMcnVNBL5ia8xo_0CRLg-44">
          <mxGeometry x="0.5784" relative="1" as="geometry">
            <mxPoint as="offset" />
          </mxGeometry>
        </mxCell>
        <mxCell id="FMcnVNBL5ia8xo_0CRLg-46" style="edgeStyle=orthogonalEdgeStyle;rounded=0;orthogonalLoop=1;jettySize=auto;html=1;entryX=0.5;entryY=0;entryDx=0;entryDy=0;" edge="1" parent="1" source="FMcnVNBL5ia8xo_0CRLg-47" target="FMcnVNBL5ia8xo_0CRLg-43">
          <mxGeometry relative="1" as="geometry" />
        </mxCell>
        <mxCell id="FMcnVNBL5ia8xo_0CRLg-47" value="crouch Input&lt;br&gt;Sequencer Node" style="rounded=0;whiteSpace=wrap;html=1;" vertex="1" parent="1">
          <mxGeometry x="785" y="610" width="100" height="50" as="geometry" />
        </mxCell>
        <mxCell id="FMcnVNBL5ia8xo_0CRLg-48" value="crouch&lt;br&gt;Condition Node" style="rounded=0;whiteSpace=wrap;html=1;" vertex="1" parent="1">
          <mxGeometry x="720" y="780" width="100" height="40" as="geometry" />
        </mxCell>
        <mxCell id="FMcnVNBL5ia8xo_0CRLg-49" value="Move" style="rounded=0;whiteSpace=wrap;html=1;" vertex="1" parent="1">
          <mxGeometry x="946" y="610" width="100" height="40" as="geometry" />
        </mxCell>
        <mxCell id="FMcnVNBL5ia8xo_0CRLg-53" style="edgeStyle=orthogonalEdgeStyle;rounded=0;orthogonalLoop=1;jettySize=auto;html=1;entryX=0.5;entryY=0;entryDx=0;entryDy=0;" edge="1" parent="1" source="FMcnVNBL5ia8xo_0CRLg-55" target="FMcnVNBL5ia8xo_0CRLg-65">
          <mxGeometry relative="1" as="geometry">
            <Array as="points">
              <mxPoint x="586" y="470" />
              <mxPoint x="425" y="470" />
            </Array>
          </mxGeometry>
        </mxCell>
        <mxCell id="FMcnVNBL5ia8xo_0CRLg-54" style="edgeStyle=orthogonalEdgeStyle;rounded=0;orthogonalLoop=1;jettySize=auto;html=1;entryX=0.5;entryY=0;entryDx=0;entryDy=0;" edge="1" parent="1" source="FMcnVNBL5ia8xo_0CRLg-55" target="FMcnVNBL5ia8xo_0CRLg-67">
          <mxGeometry relative="1" as="geometry" />
        </mxCell>
        <mxCell id="FMcnVNBL5ia8xo_0CRLg-55" value="Selector" style="rounded=0;whiteSpace=wrap;html=1;" vertex="1" parent="1">
          <mxGeometry x="536" y="410" width="100" height="40" as="geometry" />
        </mxCell>
        <mxCell id="FMcnVNBL5ia8xo_0CRLg-56" style="edgeStyle=orthogonalEdgeStyle;rounded=0;orthogonalLoop=1;jettySize=auto;html=1;entryX=0.5;entryY=0;entryDx=0;entryDy=0;" edge="1" parent="1" source="FMcnVNBL5ia8xo_0CRLg-59" target="FMcnVNBL5ia8xo_0CRLg-60">
          <mxGeometry relative="1" as="geometry" />
        </mxCell>
        <mxCell id="FMcnVNBL5ia8xo_0CRLg-57" value="yVel &amp;gt; 0" style="edgeLabel;html=1;align=center;verticalAlign=middle;resizable=0;points=[];fontStyle=1;fontSize=17;" vertex="1" connectable="0" parent="FMcnVNBL5ia8xo_0CRLg-56">
          <mxGeometry x="0.5784" relative="1" as="geometry">
            <mxPoint as="offset" />
          </mxGeometry>
        </mxCell>
        <mxCell id="FMcnVNBL5ia8xo_0CRLg-58" style="edgeStyle=orthogonalEdgeStyle;rounded=0;orthogonalLoop=1;jettySize=auto;html=1;entryX=0.5;entryY=0;entryDx=0;entryDy=0;" edge="1" parent="1" source="FMcnVNBL5ia8xo_0CRLg-59" target="FMcnVNBL5ia8xo_0CRLg-55">
          <mxGeometry relative="1" as="geometry" />
        </mxCell>
        <mxCell id="FMcnVNBL5ia8xo_0CRLg-59" value="Land&lt;br&gt;Sequencer Node" style="rounded=0;whiteSpace=wrap;html=1;" vertex="1" parent="1">
          <mxGeometry x="475" y="240" width="100" height="50" as="geometry" />
        </mxCell>
        <mxCell id="FMcnVNBL5ia8xo_0CRLg-60" value="Land&lt;br style=&quot;border-color: var(--border-color);&quot;&gt;Condition Node" style="rounded=0;whiteSpace=wrap;html=1;" vertex="1" parent="1">
          <mxGeometry x="410" y="410" width="100" height="40" as="geometry" />
        </mxCell>
        <mxCell id="FMcnVNBL5ia8xo_0CRLg-61" value="Hard Land" style="rounded=0;whiteSpace=wrap;html=1;" vertex="1" parent="1">
          <mxGeometry x="436" y="680" width="100" height="40" as="geometry" />
        </mxCell>
        <mxCell id="FMcnVNBL5ia8xo_0CRLg-62" style="edgeStyle=orthogonalEdgeStyle;rounded=0;orthogonalLoop=1;jettySize=auto;html=1;entryX=0.5;entryY=0;entryDx=0;entryDy=0;" edge="1" parent="1" source="FMcnVNBL5ia8xo_0CRLg-65" target="FMcnVNBL5ia8xo_0CRLg-66">
          <mxGeometry relative="1" as="geometry" />
        </mxCell>
        <mxCell id="FMcnVNBL5ia8xo_0CRLg-63" value="yVel &amp;gt; thresh" style="edgeLabel;html=1;align=center;verticalAlign=middle;resizable=0;points=[];fontStyle=1;fontSize=17;" vertex="1" connectable="0" parent="FMcnVNBL5ia8xo_0CRLg-62">
          <mxGeometry x="0.5784" relative="1" as="geometry">
            <mxPoint as="offset" />
          </mxGeometry>
        </mxCell>
        <mxCell id="FMcnVNBL5ia8xo_0CRLg-64" style="edgeStyle=orthogonalEdgeStyle;rounded=0;orthogonalLoop=1;jettySize=auto;html=1;entryX=0.5;entryY=0;entryDx=0;entryDy=0;" edge="1" parent="1" source="FMcnVNBL5ia8xo_0CRLg-65" target="FMcnVNBL5ia8xo_0CRLg-61">
          <mxGeometry relative="1" as="geometry" />
        </mxCell>
        <mxCell id="FMcnVNBL5ia8xo_0CRLg-65" value="Hard&lt;br&gt;Sequencer Node" style="rounded=0;whiteSpace=wrap;html=1;" vertex="1" parent="1">
          <mxGeometry x="375" y="510" width="100" height="50" as="geometry" />
        </mxCell>
        <mxCell id="FMcnVNBL5ia8xo_0CRLg-66" value="hard land&lt;br&gt;Condition Node" style="rounded=0;whiteSpace=wrap;html=1;" vertex="1" parent="1">
          <mxGeometry x="310" y="680" width="100" height="40" as="geometry" />
        </mxCell>
        <mxCell id="FMcnVNBL5ia8xo_0CRLg-67" value="Land" style="rounded=0;whiteSpace=wrap;html=1;" vertex="1" parent="1">
          <mxGeometry x="536" y="515" width="100" height="40" as="geometry" />
        </mxCell>
      </root>
    </mxGraphModel>
  </diagram>
</mxfile>
